<svg width="325" height="157" viewBox="0 0 325 157" fill="none" xmlns="http://www.w3.org/2000/svg">
<path d="M0 10.2C0.5 10.2 0.5 10.2002 0.5 10.2004L0.500001 10.2001L0.500023 10.1966L0.500246 10.1788C0.500513 10.1623 0.501066 10.1365 0.502213 10.1021C0.504506 10.0333 0.509171 9.93007 0.518651 9.79734C0.537624 9.53173 0.575811 9.14902 0.652572 8.68845C0.806489 7.76495 1.11339 6.54125 1.72221 5.32361C2.33006 4.10792 3.23397 2.90745 4.58047 2.00978C5.92385 1.11419 7.73749 0.5 10.2 0.5H100.8C103.354 0.5 105.778 1.27111 107.556 2.84898C109.324 4.4182 110.5 6.82569 110.5 10.2V26.91V27.4094L110.999 27.41C180.36 27.5 260.19 27.5 295 27.5C302.824 27.5 310.327 30.608 315.86 36.1404C321.392 41.6727 324.5 49.1761 324.5 57V127C324.5 134.824 321.392 142.327 315.86 147.86C310.327 153.392 302.824 156.5 295 156.5H30C22.1761 156.5 14.6727 153.392 9.14035 147.86C3.60803 142.327 0.5 134.824 0.5 127V10.2004V10.2H0ZM0 10.2C0 10.2 0 0 10.2 0H100.8C106.1 0 111 3.2 111 10.2V26.91C180.36 27 260.19 27 295 27C302.956 27 310.587 30.1607 316.213 35.7868C321.839 41.4129 325 49.0435 325 57V127C325 134.956 321.839 142.587 316.213 148.213C310.587 153.839 302.956 157 295 157H30C22.0435 157 14.4129 153.839 8.7868 148.213C3.16071 142.587 0 134.956 0 127V10.2Z" fill="#FFFFF7" stroke="#B9B9B1"/>
</svg>
